<?xml version="1.0" encoding="UTF-8" standalone="no"?>
<!-- Generator: Adobe Illustrator 17.1.0, SVG Export Plug-In . SVG Version: 6.00 Build 0)  -->
<!DOCTYPE svg  PUBLIC '-//W3C//DTD SVG 1.0//EN'  'http://www.w3.org/TR/2001/REC-SVG-20010904/DTD/svg10.dtd'>
<svg id="Layer_1" xmlns="http://www.w3.org/2000/svg" xml:space="preserve" viewBox="0 0 250 29" version="1.0" y="0px" x="0px" xmlns:xlink="http://www.w3.org/1999/xlink" enable-background="new 0 0 250 29">
	<g fill="#747B7E">
		<path d="m47.495 18.484c0.51-0.515 0.556-1.228 0.556-1.628 0-1.601-0.958-4.096-2.796-4.096-0.579 0-1.199 0.287-1.556 0.733-0.377 0.468-0.49 1.066-0.49 1.648 0 1.492 0.867 3.969 2.778 3.969 0.55 0 1.151-0.268 1.508-0.626m-0.646 4.231c-0.176-0.02-0.288-0.02-0.507-0.02-0.202 0-1.402 0.041-2.333 0.353-0.489 0.181-1.91 0.718-1.91 2.297 0 1.58 1.536 2.72 3.91 2.72 2.125 0 3.259-1.028 3.259-2.407 0.001-1.137-0.73-1.733-2.419-2.943m1.578-9.892c0.508 0.427 1.575 1.316 1.575 3.008 0 1.652-0.936 2.429-1.867 3.168-0.285 0.291-0.619 0.599-0.619 1.092 0 0.489 0.334 0.755 0.577 0.955l0.799 0.623c0.976 0.825 1.865 1.579 1.865 3.121 0 2.091-2.022 4.21-5.839 4.21-3.216 0-4.769-1.537-4.769-3.188 0-0.799 0.396-1.933 1.71-2.717 1.373-0.844 3.238-0.958 4.236-1.025-0.308-0.401-0.669-0.825-0.669-1.514 0-0.377 0.114-0.603 0.226-0.867-0.247 0.022-0.489 0.043-0.712 0.043-2.352 0-3.683-1.763-3.683-3.498 0-1.028 0.469-2.16 1.42-2.983 1.262-1.051 2.772-1.229 3.971-1.229h4.572l-1.42 0.801h-1.373z"/>
		<path d="m37.223 20.558c0.532-0.712 0.669-1.597 0.669-2.471 0-1.957-0.932-5.692-3.678-5.692-0.734 0-1.465 0.286-1.998 0.755-0.863 0.776-1.021 1.754-1.021 2.714 0 2.204 1.09 5.828 3.771 5.828 0.86 0 1.748-0.42 2.257-1.134m-2.769 1.801c-3.522 0-5.406-2.76-5.406-5.248 0-2.915 2.368-5.407 5.738-5.407 3.255 0 5.294 2.559 5.294 5.248 0.001 2.626-2.013 5.407-5.626 5.407"/>
		<path d="m25.215 20.558c0.535-0.712 0.664-1.597 0.664-2.471 0-1.957-0.928-5.692-3.678-5.692-0.731 0-1.459 0.286-1.993 0.755-0.864 0.776-1.02 1.754-1.02 2.714 0 2.204 1.085 5.828 3.764 5.828 0.867 0 1.754-0.42 2.263-1.134m-2.771 1.801c-3.524 0-5.405-2.76-5.405-5.248 0-2.915 2.369-5.407 5.738-5.407 3.258 0 5.298 2.559 5.298 5.248 0 2.626-2.018 5.407-5.631 5.407"/>
		<path d="m55.468 21.37c-0.737-0.071-0.891-0.205-0.891-1.074v-12.659c0.006-0.05 0.009-0.096 0.014-0.144 0.09-0.786 0.314-0.916 1.002-1.323h-3.186l-1.673 0.805h1.706v0.012l-0.002-0.004v13.805c0 0.448-0.09 0.512-0.603 1.18h3.943l0.831-0.491c-0.382-0.04-0.763-0.068-1.141-0.107"/>
		<path d="m62.455 14.954c0.42-0.156 0.641-0.288 0.641-0.597 0-0.893-0.996-1.916-2.191-1.916-0.886 0-2.546 0.694-2.546 3.091 0 0.378 0.048 0.777 0.067 1.173l4.029-1.751zm2.079 6.619c-0.244 0.135-0.489 0.293-0.732 0.401-0.728 0.337-1.48 0.422-2.145 0.422-0.708 0-1.811-0.043-2.947-0.87-1.563-1.103-2.256-3.018-2.256-4.684 0-3.443 2.792-5.13 5.07-5.13 0.797 0 1.62 0.203 2.277 0.62 1.106 0.731 1.397 1.686 1.548 2.198l-5.194 2.11-1.708 0.135c0.552 2.823 2.457 4.465 4.561 4.465 1.125 0 1.942-0.4 2.696-0.774l-1.17 1.107z"/>
		<path d="m15.343 21.109l-3.184 0.738c-1.293 0.202-2.449 0.384-3.674 0.384-6.148 0-8.485-4.544-8.485-8.099 0-4.339 3.318-8.363 8.995-8.363 1.204 0 2.366 0.178 3.411 0.468 1.667 0.471 2.451 1.057 2.937 1.386l-1.845 1.765-0.781 0.179 0.555-0.894c-0.759-0.737-2.138-2.097-4.766-2.097-3.521 0-6.171 2.681-6.171 6.595 0 4.204 3.03 8.161 7.885 8.161 1.427 0 2.161-0.293 2.83-0.56v-3.6l-3.364 0.176 1.778-0.958h4.722l-0.576 0.56c-0.157 0.131-0.18 0.175-0.223 0.353-0.023 0.206-0.046 0.856-0.046 1.081v2.725z"/>
	</g>
	<g fill="#B2B2B2">
		<path d="m84.637 15.159c-0.084 2.437-0.64 4.282-1.918 5.531-1.279 1.249-3.157 1.873-5.635 1.873h-4.158v-14.53h4.605c2.319 0 4.163 0.532 5.292 1.819 1.257 1.432 1.883 3.297 1.814 5.307zm-1.104 0.04c0-2.08-0.529-3.646-1.585-4.696-1.057-1.05-2.609-1.575-4.656-1.575h-3.095v12.742h2.826c4.34-0.001 6.51-2.158 6.51-6.471z"/>
		<path d="m91.684 22.762c-1.57 0-2.795-0.483-3.672-1.451-0.878-0.968-1.317-2.322-1.317-4.065 0-1.723 0.424-3.102 1.272-4.14 0.848-1.037 1.991-1.555 3.429-1.555 1.272 0 2.276 0.444 3.011 1.332s1.103 2.094 1.103 3.618v0.795h-7.782c0.013 1.485 0.359 2.618 1.039 3.399 0.679 0.781 1.651 1.173 2.917 1.173 0.616 0 1.158-0.043 1.625-0.129s1.058-0.272 1.774-0.557v0.895c-0.61 0.265-1.173 0.446-1.69 0.542-0.516 0.095-1.087 0.143-1.709 0.143zm-0.288-10.336c-1.04 0-1.875 0.343-2.505 1.029s-0.998 1.675-1.103 2.967h6.679c0-1.252-0.272-2.231-0.815-2.937-0.544-0.706-1.296-1.059-2.256-1.059z"/>
		<path d="m100.86 22.564l-4.177-10.804h1.014l2.793 7.345c0.371 0.94 0.649 1.763 0.835 2.465h0.06c0.271-0.901 0.55-1.729 0.835-2.485l2.793-7.325h1.014l-4.174 10.804h-0.99z"/>
		<path d="m112.2 22.762c-1.57 0-2.795-0.483-3.672-1.451-0.878-0.968-1.317-2.322-1.317-4.065 0-1.723 0.424-3.102 1.272-4.14 0.848-1.037 1.991-1.555 3.429-1.555 1.272 0 2.276 0.444 3.011 1.332s1.103 2.094 1.103 3.618v0.795h-7.782c0.013 1.485 0.359 2.618 1.039 3.399 0.679 0.781 1.651 1.173 2.917 1.173 0.616 0 1.158-0.043 1.625-0.129s1.058-0.272 1.774-0.557v0.895c-0.61 0.265-1.173 0.446-1.69 0.542-0.51 0.095-1.08 0.143-1.7 0.143zm-0.29-10.336c-1.04 0-1.875 0.343-2.505 1.029s-0.998 1.675-1.103 2.967h6.679c0-1.252-0.272-2.231-0.815-2.937-0.54-0.706-1.29-1.059-2.25-1.059z"/>
		<path d="m120 22.564h-1.272v-15.465h1.272v15.465z"/>
		<path d="m139.68 22.762c-1.664 0-2.677-0.622-3.438-1.869h-0.07l0.03 0.835c0.026 0.491 0.04 1.027 0.04 1.61v4.115h-0.984v-15.693h0.835l0.189 1.541h0.06c0.742-1.166 1.729-1.749 3.359-1.749 1.457 0 2.569 0.479 3.335 1.436 0.765 0.958 1.148 2.351 1.148 4.179 0 1.775-0.403 3.152-1.208 4.13-0.81 0.977-1.9 1.465-3.3 1.465zm-0.02-0.874c1.106 0 1.963-0.411 2.569-1.232s0.909-1.972 0.909-3.449c0-3.174-1.147-4.761-3.439-4.761-1.259 0-1.984 0.347-2.574 1.039-0.59 0.693-0.885 1.821-0.885 3.384v0.318c0 1.69 0.283 2.896 0.85 3.618s1.29 1.083 2.57 1.083z"/>
		<path d="m151.54 22.762c-1.57 0-2.795-0.483-3.672-1.451-0.878-0.968-1.317-2.322-1.317-4.065 0-1.723 0.424-3.102 1.272-4.14 0.848-1.037 1.991-1.555 3.429-1.555 1.272 0 2.276 0.444 3.011 1.332s1.103 2.094 1.103 3.618v0.795h-7.782c0.013 1.485 0.359 2.618 1.039 3.399 0.679 0.781 1.651 1.173 2.917 1.173 0.616 0 1.158-0.043 1.625-0.129s1.058-0.272 1.774-0.557v0.895c-0.61 0.265-1.173 0.446-1.69 0.542-0.51 0.095-1.08 0.143-1.7 0.143zm-0.29-10.336c-1.04 0-1.875 0.343-2.505 1.029s-0.998 1.675-1.103 2.967h6.679c0-1.252-0.272-2.231-0.815-2.937-0.54-0.706-1.29-1.059-2.25-1.059z"/>
		<path d="m162.2 11.551c0.457 0 0.947 0.047 1.471 0.139l-0.189 0.944c-0.451-0.112-0.918-0.169-1.401-0.169-0.921 0-1.677 0.391-2.266 1.173-0.59 0.782-0.885 1.769-0.885 2.962v5.963h-0.984v-10.803h0.835l0.099 1.948h0.07c0.444-0.795 0.917-1.353 1.421-1.675 0.5-0.321 1.11-0.482 1.83-0.482z"/>
		<path d="m172.16 19.751c0 0.968-0.368 1.711-1.103 2.231s-1.779 0.78-3.131 0.78c-1.445 0-2.591-0.222-3.439-0.666v-1.063c1.086 0.543 2.233 0.815 3.439 0.815 1.067 0 1.877-0.178 2.43-0.532s0.83-0.826 0.83-1.416c0-0.543-0.221-1-0.661-1.372-0.441-0.371-1.165-0.735-2.172-1.093-1.08-0.391-1.839-0.727-2.276-1.009s-0.767-0.6-0.989-0.954c-0.222-0.354-0.333-0.786-0.333-1.297 0-0.808 0.339-1.447 1.019-1.918 0.679-0.47 1.628-0.706 2.847-0.706 1.166 0 2.272 0.219 3.32 0.656l-0.368 0.895c-1.06-0.437-2.044-0.656-2.952-0.656-0.881 0-1.58 0.146-2.097 0.437-0.517 0.292-0.775 0.696-0.775 1.213 0 0.563 0.2 1.014 0.601 1.352s1.184 0.716 2.351 1.133c0.974 0.352 1.683 0.667 2.127 0.949s0.776 0.601 0.999 0.959c0.2 0.358 0.32 0.779 0.32 1.262z"/>
		<path d="m186.06 8.739c-1.823 0-3.257 0.583-4.304 1.749-1.047 1.167-1.57 2.763-1.57 4.791 0 2.074 0.493 3.684 1.481 4.83 0.987 1.147 2.398 1.719 4.234 1.719 1.219 0 2.339-0.155 3.359-0.467v0.895c-0.961 0.338-2.16 0.507-3.598 0.507-2.041 0-3.648-0.66-4.82-1.978-1.173-1.318-1.759-3.161-1.759-5.526 0-1.477 0.28-2.779 0.84-3.906 0.56-1.126 1.365-1.996 2.415-2.609 1.05-0.612 2.271-0.919 3.662-0.919 1.418 0 2.687 0.265 3.807 0.795l-0.408 0.914c-1.06-0.53-2.17-0.795-3.34-0.795z"/>
		<path d="m201.42 17.147c0 1.763-0.456 3.139-1.367 4.13-0.911 0.99-2.169 1.486-3.773 1.486-1.011 0-1.901-0.229-2.671-0.686s-1.361-1.113-1.77-1.968c-0.41-0.855-0.615-1.842-0.615-2.962 0-1.762 0.456-3.136 1.367-4.12s2.162-1.476 3.752-1.476c1.583 0 2.825 0.499 3.725 1.496 0.9 0.998 1.36 2.364 1.36 4.1zm-9.1 0c0 1.485 0.348 2.643 1.044 3.474s1.68 1.247 2.952 1.247 2.256-0.416 2.952-1.247 1.044-1.989 1.044-3.474c0-1.491-0.352-2.647-1.055-3.469-0.703-0.821-1.691-1.232-2.962-1.232-1.272 0-2.252 0.409-2.941 1.227-0.67 0.819-1.02 1.977-1.02 3.474z"/>
		<path d="m132.72 17.147c0 1.763-0.456 3.139-1.367 4.13-0.911 0.99-2.169 1.486-3.773 1.486-1.011 0-1.901-0.229-2.671-0.686s-1.361-1.113-1.77-1.968c-0.41-0.855-0.615-1.842-0.615-2.962 0-1.762 0.456-3.136 1.367-4.12s2.162-1.476 3.752-1.476c1.583 0 2.825 0.499 3.725 1.496 0.91 0.998 1.36 2.364 1.36 4.1zm-9.1 0c0 1.485 0.348 2.643 1.044 3.474s1.68 1.247 2.952 1.247 2.256-0.416 2.952-1.247 1.044-1.989 1.044-3.474c0-1.491-0.352-2.647-1.055-3.469-0.704-0.821-1.691-1.232-2.962-1.232-1.272 0-2.252 0.409-2.941 1.227-0.67 0.819-1.02 1.977-1.02 3.474z"/>
		<path d="m234.51 17.147c0 1.763-0.456 3.139-1.367 4.13-0.911 0.99-2.169 1.486-3.773 1.486-1.011 0-1.901-0.229-2.671-0.686s-1.361-1.113-1.77-1.968c-0.41-0.855-0.615-1.842-0.615-2.962 0-1.762 0.456-3.136 1.367-4.12s2.162-1.476 3.752-1.476c1.583 0 2.825 0.499 3.725 1.496 0.9 0.998 1.35 2.364 1.35 4.1zm-9.09 0c0 1.485 0.348 2.643 1.044 3.474s1.68 1.247 2.952 1.247 2.256-0.416 2.952-1.247 1.044-1.989 1.044-3.474c0-1.491-0.352-2.647-1.055-3.469-0.703-0.821-1.691-1.232-2.962-1.232-1.272 0-2.252 0.409-2.941 1.227-0.68 0.819-1.02 1.977-1.02 3.474z"/>
		<path d="m211.98 22.952v-7.395c0-1.086-0.229-1.877-0.686-2.37s-1.167-0.74-2.127-0.74c-1.292 0-2.255 0.327-2.854 0.979-0.6 0.653-0.899 1.711-0.899 3.175v6.352h-0.984v-11.193h0.835l0.189 1.481h0.06c0.702-1.126 1.968-1.69 3.764-1.69 2.451 0 3.677 1.316 3.677 3.946v7.455h-0.97z"/>
		<path d="m223.02 19.751c0 0.968-0.368 1.711-1.103 2.231s-1.779 0.78-3.131 0.78c-1.445 0-2.591-0.222-3.439-0.666v-1.063c1.086 0.543 2.233 0.815 3.439 0.815 1.067 0 1.877-0.178 2.43-0.532s0.83-0.826 0.83-1.416c0-0.543-0.221-1-0.661-1.372-0.441-0.371-1.165-0.735-2.172-1.093-1.08-0.391-1.839-0.727-2.276-1.009s-0.767-0.6-0.989-0.954c-0.222-0.354-0.333-0.786-0.333-1.297 0-0.808 0.339-1.447 1.019-1.918 0.679-0.47 1.628-0.706 2.847-0.706 1.166 0 2.272 0.219 3.32 0.656l-0.368 0.895c-1.06-0.437-2.044-0.656-2.952-0.656-0.881 0-1.58 0.146-2.097 0.437-0.517 0.292-0.775 0.696-0.775 1.213 0 0.563 0.2 1.014 0.601 1.352s1.184 0.716 2.351 1.133c0.974 0.352 1.683 0.667 2.127 0.949s0.776 0.601 0.999 0.959c0.21 0.358 0.32 0.779 0.32 1.262z"/>
		<path d="m238.31 22.564h-0.984v-15.465h0.984v15.465z"/>
		<path d="m245.93 22.762c-1.57 0-2.795-0.483-3.672-1.451-0.878-0.968-1.317-2.322-1.317-4.065 0-1.723 0.424-3.102 1.272-4.14 0.848-1.037 1.991-1.555 3.429-1.555 1.272 0 2.276 0.444 3.011 1.332s1.103 2.094 1.103 3.618v0.795h-7.782c0.013 1.485 0.359 2.618 1.039 3.399 0.679 0.781 1.651 1.173 2.917 1.173 0.616 0 1.158-0.043 1.625-0.129s1.058-0.272 1.774-0.557v0.895c-0.61 0.265-1.173 0.446-1.69 0.542-0.52 0.095-1.09 0.143-1.71 0.143zm-0.29-10.336c-1.04 0-1.875 0.343-2.505 1.029s-0.998 1.675-1.103 2.967h6.679c0-1.252-0.272-2.231-0.815-2.937-0.54-0.706-1.3-1.059-2.26-1.059z"/>
	</g>
</svg>
